<svg t="1695930754699" class="icon" viewBox="0 0 1024 1024" version="1.1" xmlns="http://www.w3.org/2000/svg" p-id="819" width="200" height="200"><path d="M938.666667 544.017067h-853.333334a32.017067 32.017067 0 0 1 0-64.034134h853.333334a32.017067 32.017067 0 0 1 0 64.034134z" fill="#333333" p-id="820"></path><path d="M213.333333 906.6496a31.982933 31.982933 0 0 1-27.306666-48.674133c1.2288-2.013867 123.2896-203.707733 123.2896-345.975467 0-142.2336-122.094933-343.9616-123.323734-345.975467a32.0512 32.0512 0 0 1 54.647467-33.3824c5.4272 8.874667 132.7104 219.0336 132.7104 379.357867S246.033067 882.4832 240.64 891.357867a31.914667 31.914667 0 0 1-27.306667 15.291733zM810.7008 906.6496a31.914667 31.914667 0 0 1-27.4432-15.496533c-5.4272-8.977067-132.608-221.866667-132.608-379.153067 0-157.2864 127.1808-370.210133 132.608-379.1872a31.982933 31.982933 0 1 1 54.784 33.041067c-1.2288 2.048-123.392 206.711467-123.392 346.180266 0 139.707733 122.1632 344.098133 123.392 346.180267a31.914667 31.914667 0 0 1-27.3408 48.4352z" fill="#333333" p-id="821"></path></svg>